<svg version="1" xmlns="http://www.w3.org/2000/svg" width="1365.333" height="1365.333" viewBox="0 0 1024.000000 1024.000000"><path d="M800.5 12.2c-12 1.2-30.5 3.8-35 4.9-22.2 5-42.8 11.2-62 18.6-13.5 5.3-42.8 19.8-57 28.4-1.6 1-4.3 2.6-6 3.5-16.6 9.2-55.4 36.7-95.5 67.8-15.7 12.1-35.5 27.2-44 33.6-49.9 37.3-83.4 55.3-118 63.6-7 1.7-17.4 1.9-145.5 2.4-150.9.6-141.2.2-153.5 6.4C53.8 256.6 31 301 19.6 367c-5.5 31.8-8.6 67.8-8.6 100.1-.1 63 10.4 128.3 27 168.4 11.9 28.6 28.5 49.9 45.3 57.9 12.5 6 16.6 6.6 44.6 6.6h25l3.1 10.2c1.7 5.7 3.5 11.9 4 13.8.5 1.9 2.1 7.5 3.5 12.5 1.5 4.9 3.3 11.2 4 14 .8 2.7 3.3 11.3 5.5 19 2.2 7.7 4.5 15.6 5 17.5.5 1.9 2.8 9.8 5 17.5 2.2 7.7 4.5 15.8 5.1 18 3.1 11 6.8 24 8 28 1 3.1 8.2 28.4 9.9 34.5.5 1.9 2.1 7.5 3.5 12.5 1.5 4.9 3.3 11.2 4 14 12 41.9 13.4 45.8 22.1 59 14.5 22.2 38.4 37.3 67 42.4 7.5 1.4 142 1.5 147.3.2 2-.5 6.1-1.5 9.1-2.2 7.5-1.6 20.6-7.8 27.5-12.9 24.7-18.3 37.2-48.2 33.5-80.6-2.1-18.7-7.4-32.1-17.6-45.1-14.8-18.6-35.1-29.1-59.9-30.9-10.8-.8-15.8-2.8-20.6-8-3.2-3.6-5.6-10.2-24.2-66.1-11.4-34.1-20.7-62.6-20.7-63.2 0-1.4 5.3-1.4 9.4-.1 1.7.5 7.4 2.3 12.6 3.9 18.2 5.6 37 14.7 59.5 28.9 21.1 13.3 36.1 24.3 90.6 66.3 43.4 33.4 60.5 45.5 88.4 62.6 45.1 27.6 83.5 43.2 129.5 52.7 17.1 3.5 31.6 4.9 53 5 23.1.1 29.2-.8 43-6.6 44.4-18.6 80.8-69.9 109-153.8 4.7-14.2 14.4-49.4 16.9-61.5.5-2.2 1.8-8.5 3-14 2.6-12.6 4.7-23.3 6-31 4.5-26.9 5-30.6 7.5-50.5 11.3-89.8 11.2-184.6-.3-280-3-24.2-9.3-61.2-14.8-86-19.9-90.2-50.8-158-89.1-195.5-17.8-17.5-37.7-28.1-60.8-32.4-6.9-1.3-28-1.2-39.9.1zm39.8 63.1c27.9 12.8 56.2 58.8 76.9 125.2 5.6 17.7 11.3 39.1 13.7 51 .5 2.2 1.8 8.3 2.9 13.5 2.6 12.3 4.8 23.8 6.1 32.5 4.4 28.4 5 32.9 7.5 56.5 7.5 68.8 7.5 156.8 0 227.5-2.1 20-3.1 27.2-7.5 56-2.1 13.6-6.9 37.6-11.3 56-1.4 5.9-5.9 23-7.6 29-2 6.9-6.1 20.2-6.9 22.5-.5 1.4-2.1 5.9-3.6 10-10.4 29.1-24.5 57.5-37.9 76-5.7 8-21.3 23-27.8 26.8-3.1 1.9-8.6 4-12.1 4.8-5.6 1.3-7.2 1.3-12.5.1-19.4-4.5-40.9-27.9-59.3-64.7-5.4-10.8-13.1-28.5-14.9-34-.4-1.4-2.4-7-4.4-12.5-8-22.1-17.9-58.6-22.6-83-.6-3.3-1.5-7.6-2-9.5-.5-1.9-1.1-5.5-1.5-8-.3-2.5-1-6.8-1.5-9.5-1.1-5.6-3.6-22-4.4-27.7-.3-2.2 0-4 .7-4.5s5.2-1.7 10.1-2.7c26.5-5.3 51-18.2 70.7-37.3 19.8-19.1 32.4-41.2 39.6-69.3 2.5-9.9 2.7-11.9 2.7-32.5s-.2-22.6-2.7-32.5c-10.9-42.5-37.4-75.7-75.2-94.1-13.7-6.6-23.2-9.9-36.4-12.4-5-1-9.1-2.3-9.2-2.9-.3-3.2.4-10.1 1.7-18.1 2.8-16.8 3.4-20.3 7.5-41.5 1.3-6.8 3.4-16.1 6.1-26.5 1.1-4.4 2.4-9.6 2.8-11.5 1-4.5 3.2-12.5 6.3-22.5 14.4-46.8 30.7-81.3 49.8-105.6C794.6 86.6 803.8 79 815 74.3c7.4-3.2 17.1-2.8 25.3 1zm-134.6 36.4c-2.4 4.8-6.3 13.3-8.7 18.8-2.3 5.5-4.7 10.9-5.1 12-1.4 3.2-7.8 21.2-11.6 32.5-7.5 22.8-15.8 55.6-21.8 86-.9 4.7-1.9 9.4-2.1 10.5-.8 3.7-4.6 27.5-7 44-1.6 11.2-2 14.8-4.9 43-3.1 30.8-5.4 77.6-5.4 109 0 30.8 2.4 79.2 5.4 109 3 29.8 3.3 33.1 4.4 39.5.5 3.6 1.5 10.1 2.1 14.5 2 14.7 7.8 47.3 10 57 .5 2.2 1.7 7.1 2.5 11 10.1 45 25.9 92.2 40.9 122.5 5.4 10.7 6.5 14 4.8 14-1.5 0-25.2-12.6-37.2-19.8-24.8-14.8-45.4-29.4-89.9-63.6-56.7-43.6-69.3-52.8-96.4-69.9-3.1-2.1-6-3.7-6.2-3.7-.3 0-2.4-1.2-4.6-2.6-4.7-2.9-24.9-13.2-32.4-16.4-2.7-1.1-5.9-2.5-7-3-13.6-5.8-43.6-14-51.4-14-4.6 0-9.4-5.2-14.7-16.1-7.6-15.4-11.9-28-16.8-48.9-4.5-19.7-5.9-28-9.2-56-2.5-20.6-2.5-86.1 0-107 5.6-48.2 13.7-80.4 26.8-106.7 5-9.9 7.9-13 13.5-13.7 31.6-4.3 68.2-19.1 105.9-42.7 22.8-14.2 37.8-25.1 91.4-66.4 53-40.9 83.2-61.3 115-77.8 10.5-5.4 13.6-6.6 13.8-5.4.2.8-1.7 5.5-4.1 10.4zM307.4 296.9c.3.5-.6 4-2 7.7-9.4 24.8-16 52.8-20.3 86.9-4.1 31.7-5.6 67.4-4.1 101.1 1.2 28.6 3.2 47.7 8.1 77.9 2.8 17.6 8.4 38 16.8 61.5 1.1 3 1.7 5.8 1.5 6.2-.3.5-44.8.8-99 .8h-98.5l-2.9-3.1c-6.6-7.3-16.7-32-22.5-54.9-14.1-55.9-16.6-133.7-6.3-195.5 3.1-18.4 3.5-20.9 4.8-25.6.6-2.4 1.6-6.2 2.2-8.4 5.4-20.8 15-43.9 21.6-51.6l3.4-3.9h98.3c56.9 0 98.6.4 98.9.9zm410.8 93.7c48.9 17.6 69.9 72.6 44.6 117.2-7.3 12.9-20.2 25.3-33.3 32-10.9 5.5-24.7 9.3-26 7.1-.4-.6-1.3-10.2-2.1-21.2-2.2-34-1.6-107.1 1.2-132.5l.5-5.2h3.9c2.1 0 7.2 1.2 11.2 2.6zM320.2 727c4.9 14.6 9.3 27.8 9.7 29.5.5 1.6 1.8 5.5 2.9 8.5 1.1 3 5 14.7 8.7 26 3.7 11.3 7.7 23.4 9 27 1.2 3.6 3.5 10.3 4.9 15 7.4 22.8 13 33.2 24 44.2 14.8 14.9 38.1 24.8 58.3 24.8 6.7 0 11.9 2.5 16.5 8 4.2 4.8 5.8 9.8 5.8 17.5 0 8-1.7 12.9-6.2 18-7 7.9-3.7 7.6-79.3 7.3l-67-.3-5.6-2.6c-3.1-1.5-7.6-4.4-9.9-6.5-7.6-6.9-8.8-9.7-17.4-39.4-.9-3-3.4-11.8-5.6-19.5-9.8-34.1-13.1-45.6-14.6-51.5-.8-3-2.1-7.8-3-10.5-1.6-5.5-2.4-8.3-4.8-16.5-.9-3-3.4-11.8-5.6-19.5-2.2-7.7-4.5-15.8-5.1-18-2-7.2-3.9-13.9-4.8-17-2-6.8-8.5-29.7-10.7-37.5-.9-3-2-6.7-2.6-8.2-2.3-6.1-4.3-5.8 46.8-5.6l46.7.3 8.9 26.5z"/></svg>