<svg version="1.1" id="Layer_1" xmlns="http://www.w3.org/2000/svg" xmlns:xlink="http://www.w3.org/1999/xlink" x="0px" y="0px"
	 viewBox="0 0 1000 1000" enable-background="new 0 0 1000 1000" xml:space="preserve">
<g id="Logo_2_">
	<path id="XMLID_86_" fill="none" d="M296.7,495.8c0,11,3.3,17,4.3,17v0.2h19.7c-2.1-4-3.1-10.8-3.1-17c0-6.2,1-13,3.1-17h-19.9
		C299.7,479,296.7,484.8,296.7,495.8z"/>
	<path id="XMLID_88_" fill="none" d="M331.4,535.8c-3,0-5.6-1.8-6.5-4.7l-4.6-14.1h-10.4l6.3,22.1c0.5,1.8,2.2,2.9,4,2.9h11.4
		c1.5,0,2.3-1.2,2.3-2.7v-0.7C334,537,333,535.8,331.4,535.8z"/>
	<path id="XMLID_83_" fill="none" d="M359.2,532c-5.2-7.8-7.9-22.3-7.9-36.2c0-13.9,2.7-28.3,7.9-36.2c-5.6,2.1-10.5,5.8-15.3,9.5
		c-5.8,4.6-11.4,8.8-17.9,9.6c-1.1,0-4.2,6-4.2,17c0,11,3.1,17,4.2,17c6.5,0.8,12.1,5.1,17.9,9.6C348.7,526.1,353.6,529.9,359.2,532
		z"/>
	<path id="XMLID_82_" fill="none" d="M363.9,495.8c0-4.5-3.6-8.2-8.1-8.4c-0.2,2.7-0.3,5.5-0.3,8.4c0,2.9,0.1,5.7,0.3,8.4
		C360.3,504,363.9,500.3,363.9,495.8z"/>
	<path id="XMLID_79_" fill="none" d="M368.1,533.7c6,0,12.6-15.6,12.6-37.9c0-22.3-6.7-37.9-12.6-37.9c-4.8,0-10,9.9-11.9,25.3
		c6.6,0.4,11.9,5.8,11.9,12.5c0,6.7-5.3,12.1-11.9,12.5C358.2,523.7,363.4,533.7,368.1,533.7z"/>
	<g id="XMLID_11_">
		<path id="XMLID_12_" stroke="#000000" stroke-width="1.6" stroke-miterlimit="10" d="M368.1,453.7c-11.2,0-19.5,6.4-26.8,12.1
			c-5.9,4.6-11.4,8.9-17.4,8.9h-23.1c-5.8,0-8.4,10.9-8.4,21c0,10.1,2.6,21,8.4,21h4.7l6.7,23.3c1,3.6,4.4,6.1,8.1,6.1h11.4
			c3.9,0,7-3.1,7-7v-0.7c0-3.9-3.1-7-7-7c-1.2,0-2.3-0.8-2.6-1.9l-4.2-12.7c5.7,0.4,11,4.5,16.6,8.8c7.3,5.7,15.6,12.1,26.8,12.1
			c10.9,0,16.8-21.7,16.8-42.1S379.1,453.7,368.1,453.7z M300.8,512.6c-1.1,0-4.2-5.8-4.2-16.8c0-11,3.1-16.8,4.2-16.8h19.9
			c-2.1,4.1-3.1,10.6-3.1,16.8s1,12.7,3.1,16.8L300.8,512.6L300.8,512.6z M325,531c1,2.9,3.6,4.8,6.6,4.8c1.5,0,2.8,1.2,2.8,2.8v0.7
			c0,1.5-1.2,2.8-2.8,2.8h-11.4c-1.9,0-3.5-1.3-4-3.1l-6.3-22.2h10.4L325,531z M344,522.4c-5.8-4.6-11.4-8.8-17.9-9.6l0,0
			c-1.1,0-4.2-6-4.2-17c0-11,3.1-17,4.2-17l0,0c6.5-0.8,12.1-5.1,17.9-9.6c4.8-3.7,9.6-7.5,15.3-9.5c-5.2,7.8-7.9,22.3-7.9,36.2
			c0,13.9,2.7,28.3,7.9,36.2C353.6,529.9,348.7,526.1,344,522.4z M355.8,487.4c4.5,0.2,8.1,3.9,8.1,8.4c0,4.5-3.6,8.2-8.1,8.4
			c-0.2-2.7-0.3-5.5-0.3-8.4C355.5,492.9,355.6,490.1,355.8,487.4z M368.1,533.7c-4.8,0-10-9.9-11.9-25.3
			c6.6-0.4,11.9-5.8,11.9-12.5c0-6.7-5.3-12.1-11.9-12.5c1.9-15.4,7.1-25.3,11.9-25.3c6,0,12.6,15.6,12.6,37.9
			C380.8,518.1,374.1,533.7,368.1,533.7z"/>
	</g>
</g>
<g id="Logo_3_">
	<path id="XMLID_73_" fill="none" d="M707.5,495.8c0,11-3.5,17-4.5,17v0.2h-19.4c2.1-4,3.1-10.8,3.1-17c0-6.2-1-13-3.1-17h19.9
		C704.6,479,707.5,484.8,707.5,495.8z"/>
	<path id="XMLID_72_" fill="none" d="M672.7,535.8c3,0,5.7-1.8,6.6-4.7L684,517h10.4l-6.3,22.1c-0.5,1.8-2.2,2.9-4,2.9h-11.4
		c-1.5,0-2.7-1.2-2.7-2.7v-0.7C670,537,671.2,535.8,672.7,535.8z"/>
	<path id="XMLID_71_" fill="none" d="M645.1,532c5.2-7.8,7.9-22.3,7.9-36.2c0-13.9-2.7-28.3-7.9-36.2c5.6,2.1,10.5,5.8,15.3,9.5
		c5.8,4.6,11.4,8.8,17.9,9.6c1.1,0,4.2,6,4.2,17c0,11-3.1,17-4.2,17c-6.5,0.8-12.1,5.1-17.9,9.6C655.6,526.1,650.7,529.9,645.1,532z
		"/>
	<path id="XMLID_70_" fill="none" d="M640.4,495.8c0-4.5,3.6-8.2,8.1-8.4c0.2,2.7,0.3,5.5,0.3,8.4c0,2.9-0.1,5.7-0.3,8.4
		C644,504,640.4,500.3,640.4,495.8z"/>
	<path id="XMLID_69_" fill="none" d="M636.2,533.7c-6,0-12.6-15.6-12.6-37.9c0-22.3,6.7-37.9,12.6-37.9c4.8,0,10,9.9,11.9,25.3
		c-6.6,0.4-11.9,5.8-11.9,12.5c0,6.7,5.3,12.1,11.9,12.5C646.2,523.7,641,533.7,636.2,533.7z"/>
	<g id="XMLID_1_">
		<path id="XMLID_2_" stroke="#000000" stroke-width="1.6" stroke-miterlimit="10" d="M619.4,495.8c0,20.4,5.9,42.1,16.8,42.1
			c11.2,0,19.5-6.4,26.8-12.1c5.6-4.4,10.9-8.5,16.6-8.8l-4.2,12.7c-0.4,1.1-1.4,1.9-2.6,1.9c-3.9,0-7,3.1-7,7v0.7c0,3.9,3.1,7,7,7
			h11.4c3.7,0,7.1-2.5,8.1-6.1l6.7-23.3h4.7c5.8,0,8.4-10.9,8.4-21c0-10.1-2.6-21-8.4-21h-23.1c-6,0-11.5-4.3-17.4-8.9
			c-7.3-5.7-15.6-12.1-26.8-12.1C625.3,453.7,619.4,475.4,619.4,495.8z M703.5,512.6h-19.9c2.1-4.1,3.1-10.6,3.1-16.8
			s-1-12.7-3.1-16.8h19.9c1.1,0,4.2,5.8,4.2,16.8C707.8,506.8,704.6,512.6,703.5,512.6L703.5,512.6z M684,516.8h10.4l-6.3,22.2
			c-0.5,1.8-2.2,3.1-4,3.1h-11.4c-1.5,0-2.8-1.2-2.8-2.8v-0.7c0-1.5,1.2-2.8,2.8-2.8c3,0,5.7-1.9,6.6-4.8L684,516.8z M645.1,532
			c5.2-7.8,7.9-22.3,7.9-36.2c0-13.9-2.7-28.3-7.9-36.2c5.6,2.1,10.5,5.8,15.3,9.5c5.8,4.6,11.4,8.8,17.9,9.6l0,0
			c1.1,0,4.2,6,4.2,17c0,11-3.1,17-4.2,17l0,0c-6.5,0.8-12.1,5.1-17.9,9.6C655.6,526.1,650.7,529.9,645.1,532z M648.8,495.8
			c0,2.9-0.1,5.7-0.3,8.4c-4.5-0.2-8.1-3.9-8.1-8.4c0-4.5,3.6-8.2,8.1-8.4C648.7,490.1,648.8,492.9,648.8,495.8z M623.6,495.8
			c0-22.3,6.7-37.9,12.6-37.9c4.8,0,10,9.9,11.9,25.3c-6.6,0.4-11.9,5.8-11.9,12.5c0,6.7,5.3,12.1,11.9,12.5
			c-1.9,15.4-7.1,25.3-11.9,25.3C630.3,533.7,623.6,518.1,623.6,495.8z"/>
	</g>
</g>
<g id="XMLID_19_">
	<path id="XMLID_20_" d="M410.5,489.8h-3.7v8.7h-6.1v-23.8H412c2.9,0,5.1,0.6,6.6,1.9c1.5,1.3,2.3,3.2,2.3,5.6
		c0,1.7-0.4,3.2-1.2,4.3c-0.8,1.2-1.9,2-3.5,2.6l6,9.3h-6.8L410.5,489.8z M406.8,485.5h4.2c1.3,0,2.3-0.2,2.9-0.7
		c0.6-0.5,0.9-1.2,0.9-2.3c0-1-0.3-1.8-0.9-2.3c-0.6-0.5-1.6-0.7-2.9-0.7h-4.2V485.5z"/>
	<path id="XMLID_23_" d="M443.6,494.9l-0.5,3.4c-0.7,0.4-1.5,0.6-2.4,0.6c-2.6,0-4.1-0.9-4.6-2.8c-1.1,1.8-3.2,2.8-6.4,2.8
		c-1.8,0-3.2-0.4-4.1-1.2c-1-0.8-1.4-1.9-1.4-3.3c0-1.5,0.5-2.8,1.6-3.7c1.1-0.9,2.9-1.7,5.4-2.2l4.1-0.8V487c0-0.8-0.2-1.5-0.7-1.9
		c-0.5-0.5-1.1-0.7-1.9-0.7c-0.9,0-1.7,0.2-2.2,0.6s-0.9,1.1-1.1,2.1l-5-1.4c0.3-1.8,1.2-3.1,2.6-4.1c1.4-1,3.3-1.5,5.7-1.5
		c2.8,0,4.9,0.6,6.4,1.7c1.5,1.2,2.2,2.9,2.2,5.2v6.6c0,0.9,0.4,1.4,1.3,1.4C442.9,495,443.3,495,443.6,494.9z M434.1,494.2
		c0.7-0.5,1-1.1,1-1.9v-1.5l-2.9,0.7c-0.8,0.2-1.3,0.4-1.6,0.7s-0.5,0.7-0.5,1.2s0.2,0.9,0.5,1.2c0.3,0.3,0.7,0.4,1.3,0.4
		C432.7,494.9,433.4,494.7,434.1,494.2z"/>
	<path id="XMLID_26_" d="M464.1,472.9v25.6h-5.5l-0.2-3.4c-0.5,1.2-1.3,2.1-2.3,2.8c-1,0.7-2.2,1-3.5,1c-2.3,0-4.1-0.8-5.5-2.4
		c-1.3-1.6-2-3.9-2-6.8c0-3,0.7-5.3,2-6.9c1.3-1.7,3.1-2.5,5.5-2.5c1.3,0,2.4,0.3,3.3,0.9c0.9,0.6,1.6,1.4,2.2,2.5v-10.7H464.1z
		 M457,493.3c0.6-0.7,0.9-1.7,1-3.1v-1.4c-0.1-1.3-0.4-2.3-1-3.1c-0.6-0.7-1.4-1.1-2.4-1.1c-1.1,0-1.9,0.4-2.5,1.2s-0.9,2-0.9,3.7
		s0.3,2.9,0.9,3.7s1.4,1.2,2.5,1.2C455.6,494.4,456.4,494,457,493.3z"/>
	<path id="XMLID_29_" d="M468.8,477.7c-0.6-0.5-0.8-1.2-0.8-2.2c0-1,0.3-1.8,0.8-2.3c0.6-0.5,1.5-0.7,2.7-0.7c1.2,0,2.2,0.2,2.7,0.7
		c0.6,0.5,0.8,1.2,0.8,2.3c0,1-0.3,1.7-0.8,2.2c-0.6,0.5-1.5,0.7-2.7,0.7C470.3,478.4,469.4,478.2,468.8,477.7z M474.6,498.5h-6.1
		v-18h6.1V498.5z"/>
	<path id="XMLID_32_" d="M494.6,482.6c1.7,1.6,2.5,3.9,2.5,6.9s-0.8,5.3-2.5,6.9c-1.7,1.6-4,2.5-7,2.5s-5.3-0.8-7-2.5
		c-1.7-1.6-2.5-3.9-2.5-6.9s0.8-5.3,2.5-6.9c1.7-1.6,4-2.5,7-2.5S492.9,481,494.6,482.6z M485,485.7c-0.6,0.8-0.8,2.1-0.8,3.8
		c0,1.8,0.3,3,0.8,3.8c0.6,0.8,1.4,1.2,2.6,1.2s2-0.4,2.6-1.2s0.8-2.1,0.8-3.8c0-1.8-0.3-3-0.8-3.8s-1.4-1.2-2.6-1.2
		S485.6,484.9,485,485.7z"/>
	<path id="XMLID_35_" d="M530.3,480.5l-5.4,18h-7.3l-3.2-11.6l-3.2,11.6h-7.3l-5.5-18h6.4l3,13.6l3.5-13.6h6l3.5,13.6l3.1-13.6
		H530.3z"/>
	<path id="XMLID_37_" d="M549.8,491.3h-12.3c0.2,1.1,0.6,2,1.2,2.5c0.6,0.5,1.5,0.8,2.5,0.8c0.9,0,1.6-0.2,2.2-0.5
		c0.6-0.3,0.9-0.8,1.1-1.5l5,1.6c-0.4,1.1-1,2.1-1.9,2.8c-0.9,0.7-2,1.3-3.3,1.6c-0.9,0.4-1.5,0.9-1.9,1.3c-0.4,0.4-0.6,0.9-0.6,1.4
		c0,0.5,0.2,0.9,0.5,1.2c0.3,0.3,0.8,0.4,1.4,0.4c0.7,0,1.3-0.1,1.7-0.4l0.8,3c-0.9,0.6-2.1,0.8-3.7,0.8c-1.5,0-2.7-0.3-3.6-1
		c-0.9-0.7-1.4-1.7-1.4-3c0-1.3,0.6-2.5,1.9-3.5c-2.6-0.3-4.6-1.2-6-2.8c-1.4-1.6-2.1-3.7-2.1-6.4c0-3,0.8-5.3,2.4-6.9
		c1.6-1.6,3.9-2.4,6.9-2.4c2.9,0,5.1,0.8,6.7,2.4s2.3,3.8,2.3,6.7C550,490.1,550,490.8,549.8,491.3z M537.5,488h6.8
		c-0.3-2.4-1.4-3.5-3.3-3.5C539,484.4,537.9,485.6,537.5,488z"/>
	<path id="XMLID_40_" d="M552.5,494.8l7.1-8.1l1.9-1.9l-2.9,0.1h-6.2v-4.3h15.8v3.7l-7.1,8.1l-1.9,2l3.2-0.1h6.2v4.3h-16.2V494.8z"
		/>
	<path id="XMLID_42_" d="M589.2,491.3H577c0.2,1.1,0.6,2,1.2,2.5c0.6,0.5,1.5,0.8,2.5,0.8c0.9,0,1.6-0.2,2.2-0.5
		c0.6-0.3,0.9-0.8,1.1-1.5l5,1.6c-0.5,1.5-1.5,2.7-2.9,3.5c-1.5,0.8-3.2,1.2-5.3,1.2c-3.1,0-5.5-0.8-7.2-2.4
		c-1.7-1.6-2.5-3.9-2.5-6.9c0-3,0.8-5.3,2.4-6.9c1.6-1.6,3.9-2.4,6.9-2.4c2.9,0,5.1,0.8,6.7,2.4s2.3,3.8,2.3,6.7
		C589.4,490.1,589.3,490.8,589.2,491.3z M576.9,488h6.8c-0.3-2.4-1.4-3.5-3.3-3.5C578.4,484.4,577.3,485.6,576.9,488z"/>
	<path id="XMLID_45_" d="M600.4,486.4v5.9c0,0.8,0.1,1.4,0.4,1.7c0.2,0.3,0.7,0.5,1.3,0.5c0.6,0,1.2-0.1,1.8-0.3l-0.4,3.8
		c-0.4,0.3-1,0.5-1.7,0.6c-0.7,0.2-1.4,0.3-2.1,0.3c-1.9,0-3.3-0.4-4.2-1.4c-0.9-0.9-1.3-2.3-1.3-4.3v-3.1l-3.1,2v-4.5l3.1-1.5
		v-13.2h6.1v9.7l3.7-2.4v4.5L600.4,486.4z"/>
	<path id="XMLID_47_" d="M413.9,519.2v2.9h-13.2v-17.2h12.9v2.9h-9.3v4.3h7.3v2.8h-7.3v4.4H413.9z"/>
	<path id="XMLID_49_" d="M420.3,518c0,0.6,0.1,1.1,0.3,1.3c0.2,0.2,0.5,0.4,1,0.4c0.3,0,0.6,0,0.8-0.1c0.2,0,0.5-0.1,0.8-0.2
		l-0.3,2.5c-0.3,0.2-0.6,0.3-1.1,0.4c-0.5,0.1-0.9,0.1-1.3,0.1c-1.3,0-2.2-0.3-2.8-0.9c-0.6-0.6-0.9-1.6-0.9-3v-15.1h3.6V518z"/>
	<path id="XMLID_51_" d="M437.1,516.9h-9.2c0.4,1.8,1.4,2.8,3.3,2.8c0.7,0,1.4-0.1,1.8-0.4s0.8-0.7,1-1.2l2.9,1.1
		c-0.4,1-1.1,1.8-2.1,2.4s-2.2,0.8-3.7,0.8c-2.1,0-3.8-0.6-5-1.8s-1.8-2.8-1.8-5s0.6-3.8,1.7-5c1.1-1.2,2.8-1.8,4.8-1.8
		c2,0,3.6,0.6,4.6,1.7s1.6,2.8,1.6,5C437.2,516,437.2,516.5,437.1,516.9z M428.9,512.2c-0.5,0.5-0.8,1.2-1,2.2h6.1
		c-0.1-1-0.5-1.7-1-2.2c-0.5-0.5-1.2-0.8-2-0.8C430.1,511.5,429.4,511.7,428.9,512.2z"/>
	<path id="XMLID_54_" d="M446.1,516.3l-2.4,2.5v3.2h-3.6v-18.7h3.6V515l5.6-5.9h4l-4.9,5.1l5.2,7.9h-4L446.1,516.3z"/>
	<path id="XMLID_56_" d="M464.8,521.3c-0.4,0.3-0.9,0.6-1.6,0.8s-1.3,0.3-2,0.3c-2.9,0-4.3-1.3-4.3-3.9v-6.7h-2.4v-2.7h2.4v-3l3.6-1
		v4h4.2v2.7h-4.2v6.1c0,1.2,0.6,1.8,1.8,1.8c0.8,0,1.4-0.2,2-0.7L464.8,521.3z"/>
	<path id="XMLID_58_" d="M475.8,509.1l-0.4,3.1c-0.4-0.3-0.9-0.4-1.6-0.4c-0.8,0-1.6,0.3-2.2,0.9c-0.6,0.6-0.9,1.5-0.9,2.6v6.7H467
		v-13h3.1l0.2,2.5c0.7-1.9,2.1-2.8,4-2.8C475,508.8,475.5,508.9,475.8,509.1z"/>
	<path id="XMLID_60_" d="M485.2,522.9c-0.6,1.8-1.4,3-2.2,3.7c-0.8,0.7-2,1.1-3.4,1.1c-1.4,0-2.5-0.3-3.3-1l0.9-2.5
		c0.3,0.3,0.6,0.5,0.9,0.6c0.3,0.1,0.8,0.2,1.3,0.2c0.5,0,1-0.1,1.3-0.3c0.3-0.2,0.6-0.6,0.8-1.2l0.5-1.1l-1.4-3.4l-4-9.8h4l2.4,7.8
		l0.7,2.6l0.8-2.8l2.4-7.6h3.6L485.2,522.9z"/>
	<path id="XMLID_62_" d="M498.4,516.3l-2.4,2.5v3.2h-3.6v-18.7h3.6V515l5.6-5.9h4l-4.9,5.1l5.2,7.9h-4L498.4,516.3z"/>
</g>
</svg>
