<svg version="1.1" id="Layer_1" xmlns="http://www.w3.org/2000/svg" xmlns:xlink="http://www.w3.org/1999/xlink" x="0px" y="0px"
	 viewBox="0 0 1000 1000" enable-background="new 0 0 1000 1000" xml:space="preserve">
<g id="Logo_2_">
	<path id="XMLID_86_" fill="none" d="M457.9,495.8c0,11,3.1,17,4.1,17v0.2h20.1c-2.1-4-3.1-10.8-3.1-17c0-6.2,1-13,3.1-17h-19.9
		C461.1,479,457.9,484.8,457.9,495.8z"/>
	<path id="XMLID_88_" fill="none" d="M492.6,535.8c-3,0-5.5-1.8-6.4-4.7l-4.5-14.1h-10.4l6.3,22.1c0.5,1.8,2.2,2.9,4,2.9H493
		c1.5,0,2-1.2,2-2.7v-0.7C495,537,494.1,535.8,492.6,535.8z"/>
	<path id="XMLID_83_" fill="none" d="M520.6,532c-5.2-7.8-7.9-22.3-7.9-36.2c0-13.9,2.7-28.3,7.9-36.2c-5.6,2.1-10.5,5.8-15.3,9.5
		c-5.8,4.6-11.4,8.8-17.9,9.6c-1.1,0-4.2,6-4.2,17c0,11,3.1,17,4.2,17c6.5,0.8,12.1,5.1,17.9,9.6C510,526.1,514.9,529.9,520.6,532z"
		/>
	<path id="XMLID_82_" fill="none" d="M525.2,495.8c0-4.5-3.6-8.2-8.1-8.4c-0.2,2.7-0.3,5.5-0.3,8.4c0,2.9,0.1,5.7,0.3,8.4
		C521.6,504,525.2,500.3,525.2,495.8z"/>
	<path id="XMLID_79_" fill="none" d="M529.5,533.7c6,0,12.6-15.6,12.6-37.9c0-22.3-6.7-37.9-12.6-37.9c-4.8,0-10,9.9-11.9,25.3
		c6.6,0.4,11.9,5.8,11.9,12.5c0,6.7-5.3,12.1-11.9,12.5C519.5,523.7,524.7,533.7,529.5,533.7z"/>
	<g id="XMLID_11_">
		<path id="XMLID_12_" stroke="#000000" stroke-width="1.6" stroke-miterlimit="10" d="M529.5,453.7c-11.2,0-19.5,6.4-26.8,12.1
			c-5.9,4.6-11.4,8.9-17.4,8.9h-23.1c-5.8,0-8.4,10.9-8.4,21s2.6,21,8.4,21h4.7l6.7,23.3c1,3.6,4.4,6.1,8.1,6.1H493c3.9,0,7-3.1,7-7
			v-0.7c0-3.9-3.1-7-7-7c-1.2,0-2.3-0.8-2.6-1.9l-4.2-12.7c5.7,0.4,11,4.5,16.6,8.8c7.3,5.7,15.6,12.1,26.8,12.1
			c10.9,0,16.8-21.7,16.8-42.1C546.3,475.4,540.4,453.7,529.5,453.7z M462.1,512.6c-1.1,0-4.2-5.8-4.2-16.8c0-11,3.1-16.8,4.2-16.8
			h19.9c-2.1,4.1-3.1,10.6-3.1,16.8s1,12.7,3.1,16.8L462.1,512.6L462.1,512.6z M486.4,531c1,2.9,3.6,4.8,6.6,4.8
			c1.5,0,2.8,1.2,2.8,2.8v0.7c0,1.5-1.2,2.8-2.8,2.8h-11.4c-1.9,0-3.5-1.3-4-3.1l-6.3-22.2h10.4L486.4,531z M505.3,522.4
			c-5.8-4.6-11.4-8.8-17.9-9.6l0,0c-1.1,0-4.2-6-4.2-17c0-11,3.1-17,4.2-17l0,0c6.5-0.8,12.1-5.1,17.9-9.6c4.8-3.7,9.6-7.5,15.3-9.5
			c-5.2,7.8-7.9,22.3-7.9,36.2s2.7,28.3,7.9,36.2C514.9,529.9,510,526.1,505.3,522.4z M517.2,487.4c4.5,0.2,8.1,3.9,8.1,8.4
			c0,4.5-3.6,8.2-8.1,8.4c-0.2-2.7-0.3-5.5-0.3-8.4S516.9,490.1,517.2,487.4z M529.5,533.7c-4.8,0-10-9.9-11.9-25.3
			c6.6-0.4,11.9-5.8,11.9-12.5s-5.3-12.1-11.9-12.5c1.9-15.4,7.1-25.3,11.9-25.3c6,0,12.6,15.6,12.6,37.9
			C542.1,518.1,535.4,533.7,529.5,533.7z"/>
	</g>
</g>
</svg>
